<svg xmlns="http://www.w3.org/2000/svg" width="20" height="20" viewBox="0 0 20 20"><defs><style>.a{fill:rgba(0,0,0,0.54);}</style></defs><path class="a" d="M17.893,0H2.107A2.109,2.109,0,0,0,0,2.107V17.893A2.109,2.109,0,0,0,2.107,20H17.893A2.109,2.109,0,0,0,20,17.893V2.107A2.112,2.112,0,0,0,17.893,0ZM19,17.893A1.11,1.11,0,0,1,17.893,19H2.107A1.11,1.11,0,0,1,1,17.893V2.107A1.11,1.11,0,0,1,2.107,1H17.893A1.11,1.11,0,0,1,19,2.107Z"/><path class="a" d="M173.4,167.347a.5.5,0,0,0-.706,0l-2.319,2.319-2.319-2.319a.5.5,0,0,0-.706.706l2.319,2.319-2.319,2.319a.5.5,0,0,0,.71.706l2.319-2.319L172.7,173.4a.5.5,0,0,0,.71-.706l-2.327-2.319,2.319-2.319A.5.5,0,0,0,173.4,167.347Z" transform="translate(-160.373 -160.373)"/></svg>