<svg xmlns="http://www.w3.org/2000/svg" width="16.668" height="20" viewBox="0 0 16.668 20"><defs><style>.a{fill:rgba(0,0,0,0.54);}</style></defs><g transform="translate(-42.657)"><g transform="translate(42.657 2.917)"><path class="a" d="M59.265,88.62l-1.432-2.385a7.089,7.089,0,0,1-1.009-3.645V80.5a5.833,5.833,0,0,0-11.667,0V82.59a7.089,7.089,0,0,1-1.009,3.645L42.717,88.62a.416.416,0,0,0,.358.631H58.908a.416.416,0,0,0,.358-.631Zm-15.455-.2,1.053-1.754a7.915,7.915,0,0,0,1.128-4.073V80.5a5,5,0,0,1,10,0V82.59a7.922,7.922,0,0,0,1.127,4.073l1.053,1.754Z" transform="translate(-42.657 -74.667)"/></g><g transform="translate(49.324)"><path class="a" d="M215,0a1.668,1.668,0,0,0-1.667,1.667V3.333a.417.417,0,0,0,.833,0V1.667a.833.833,0,1,1,1.667,0V3.333a.417.417,0,0,0,.833,0V1.667A1.668,1.668,0,0,0,215,0Z" transform="translate(-213.333)"/></g><g transform="translate(48.908 16.667)"><path class="a" d="M206.553,426.885a.417.417,0,0,0-.72.422,1.25,1.25,0,1,1-2.165,0,.417.417,0,0,0-.72-.422,2.084,2.084,0,1,0,3.6,0Z" transform="translate(-202.666 -426.68)"/></g></g></svg>